<mxfile host="app.diagrams.net" modified="2020-07-14T08:02:37.442Z" agent="5.0 (Macintosh; Intel Mac OS X 10_15_5) AppleWebKit/537.36 (KHTML, like Gecko) Chrome/83.0.4103.116 Safari/537.36" etag="A_7h_PBTyISHTawonMho" version="13.4.2" type="github">
  <diagram id="auifeA39eSRJrvWn3jdz" name="Page-1">
    <mxGraphModel dx="2066" dy="1154" grid="1" gridSize="10" guides="1" tooltips="1" connect="1" arrows="1" fold="1" page="1" pageScale="1" pageWidth="827" pageHeight="1169" math="0" shadow="0">
      <root>
        <mxCell id="0" />
        <mxCell id="1" parent="0" />
        <mxCell id="PGA9ps1pN8x-niHp9WUy-12" value="" style="shape=table;html=1;whiteSpace=wrap;startSize=0;container=1;collapsible=0;childLayout=tableLayout;" vertex="1" parent="1">
          <mxGeometry x="530" y="300" width="60" height="200" as="geometry" />
        </mxCell>
        <mxCell id="PGA9ps1pN8x-niHp9WUy-13" value="" style="shape=partialRectangle;html=1;whiteSpace=wrap;collapsible=0;dropTarget=0;pointerEvents=0;fillColor=none;top=0;left=0;bottom=0;right=0;points=[[0,0.5],[1,0.5]];portConstraint=eastwest;" vertex="1" parent="PGA9ps1pN8x-niHp9WUy-12">
          <mxGeometry width="60" height="20" as="geometry" />
        </mxCell>
        <mxCell id="PGA9ps1pN8x-niHp9WUy-14" value="Data" style="shape=partialRectangle;html=1;whiteSpace=wrap;connectable=0;overflow=hidden;fillColor=#fff2cc;top=0;left=0;bottom=0;right=0;strokeColor=#d6b656;" vertex="1" parent="PGA9ps1pN8x-niHp9WUy-13">
          <mxGeometry width="60" height="20" as="geometry" />
        </mxCell>
        <mxCell id="PGA9ps1pN8x-niHp9WUy-15" value="" style="shape=partialRectangle;html=1;whiteSpace=wrap;collapsible=0;dropTarget=0;pointerEvents=0;fillColor=none;top=0;left=0;bottom=0;right=0;points=[[0,0.5],[1,0.5]];portConstraint=eastwest;" vertex="1" parent="PGA9ps1pN8x-niHp9WUy-12">
          <mxGeometry y="20" width="60" height="30" as="geometry" />
        </mxCell>
        <mxCell id="PGA9ps1pN8x-niHp9WUy-16" value="" style="shape=partialRectangle;html=1;whiteSpace=wrap;connectable=0;overflow=hidden;fillColor=none;top=0;left=0;bottom=0;right=0;" vertex="1" parent="PGA9ps1pN8x-niHp9WUy-15">
          <mxGeometry width="60" height="30" as="geometry" />
        </mxCell>
        <mxCell id="PGA9ps1pN8x-niHp9WUy-17" value="" style="shape=partialRectangle;html=1;whiteSpace=wrap;collapsible=0;dropTarget=0;pointerEvents=0;fillColor=#dae8fc;top=0;left=0;bottom=0;right=0;points=[[0,0.5],[1,0.5]];portConstraint=eastwest;strokeColor=#6c8ebf;" vertex="1" parent="PGA9ps1pN8x-niHp9WUy-12">
          <mxGeometry y="50" width="60" height="20" as="geometry" />
        </mxCell>
        <mxCell id="PGA9ps1pN8x-niHp9WUy-18" value="Stack" style="shape=partialRectangle;html=1;whiteSpace=wrap;connectable=0;overflow=hidden;fillColor=none;top=0;left=0;bottom=0;right=0;" vertex="1" parent="PGA9ps1pN8x-niHp9WUy-17">
          <mxGeometry width="60" height="20" as="geometry" />
        </mxCell>
        <mxCell id="PGA9ps1pN8x-niHp9WUy-19" value="" style="shape=partialRectangle;html=1;whiteSpace=wrap;collapsible=0;dropTarget=0;pointerEvents=0;fillColor=none;top=0;left=0;bottom=0;right=0;points=[[0,0.5],[1,0.5]];portConstraint=eastwest;" vertex="1" parent="PGA9ps1pN8x-niHp9WUy-12">
          <mxGeometry y="70" width="60" height="30" as="geometry" />
        </mxCell>
        <mxCell id="PGA9ps1pN8x-niHp9WUy-20" value="Heap" style="shape=partialRectangle;html=1;whiteSpace=wrap;connectable=0;overflow=hidden;fillColor=#f8cecc;top=0;left=0;bottom=0;right=0;strokeColor=#b85450;" vertex="1" parent="PGA9ps1pN8x-niHp9WUy-19">
          <mxGeometry width="60" height="30" as="geometry" />
        </mxCell>
        <mxCell id="PGA9ps1pN8x-niHp9WUy-21" value="" style="shape=partialRectangle;html=1;whiteSpace=wrap;collapsible=0;dropTarget=0;pointerEvents=0;fillColor=none;top=0;left=0;bottom=0;right=0;points=[[0,0.5],[1,0.5]];portConstraint=eastwest;" vertex="1" parent="PGA9ps1pN8x-niHp9WUy-12">
          <mxGeometry y="100" width="60" height="40" as="geometry" />
        </mxCell>
        <mxCell id="PGA9ps1pN8x-niHp9WUy-22" value="" style="shape=partialRectangle;html=1;whiteSpace=wrap;connectable=0;overflow=hidden;fillColor=none;top=0;left=0;bottom=0;right=0;" vertex="1" parent="PGA9ps1pN8x-niHp9WUy-21">
          <mxGeometry width="60" height="40" as="geometry" />
        </mxCell>
        <mxCell id="PGA9ps1pN8x-niHp9WUy-23" value="" style="shape=partialRectangle;html=1;whiteSpace=wrap;collapsible=0;dropTarget=0;pointerEvents=0;fillColor=none;top=0;left=0;bottom=0;right=0;points=[[0,0.5],[1,0.5]];portConstraint=eastwest;" vertex="1" parent="PGA9ps1pN8x-niHp9WUy-12">
          <mxGeometry y="140" width="60" height="60" as="geometry" />
        </mxCell>
        <mxCell id="PGA9ps1pN8x-niHp9WUy-24" value="Text" style="shape=partialRectangle;html=1;whiteSpace=wrap;connectable=0;overflow=hidden;fillColor=#d5e8d4;top=0;left=0;bottom=0;right=0;strokeColor=#82b366;" vertex="1" parent="PGA9ps1pN8x-niHp9WUy-23">
          <mxGeometry width="60" height="60" as="geometry" />
        </mxCell>
        <mxCell id="PGA9ps1pN8x-niHp9WUy-1" value="" style="shape=table;html=1;whiteSpace=wrap;startSize=0;container=1;collapsible=0;childLayout=tableLayout;" vertex="1" parent="1">
          <mxGeometry x="310" y="300" width="60" height="200" as="geometry" />
        </mxCell>
        <mxCell id="PGA9ps1pN8x-niHp9WUy-2" value="" style="shape=partialRectangle;html=1;whiteSpace=wrap;collapsible=0;dropTarget=0;pointerEvents=0;fillColor=none;top=0;left=0;bottom=0;right=0;points=[[0,0.5],[1,0.5]];portConstraint=eastwest;" vertex="1" parent="PGA9ps1pN8x-niHp9WUy-1">
          <mxGeometry width="60" height="40" as="geometry" />
        </mxCell>
        <mxCell id="PGA9ps1pN8x-niHp9WUy-3" value="Stack" style="shape=partialRectangle;html=1;whiteSpace=wrap;connectable=0;overflow=hidden;fillColor=#dae8fc;top=0;left=0;bottom=0;right=0;strokeColor=#6c8ebf;" vertex="1" parent="PGA9ps1pN8x-niHp9WUy-2">
          <mxGeometry width="60" height="40" as="geometry" />
        </mxCell>
        <mxCell id="PGA9ps1pN8x-niHp9WUy-4" value="" style="shape=partialRectangle;html=1;whiteSpace=wrap;collapsible=0;dropTarget=0;pointerEvents=0;fillColor=none;top=0;left=0;bottom=0;right=0;points=[[0,0.5],[1,0.5]];portConstraint=eastwest;" vertex="1" parent="PGA9ps1pN8x-niHp9WUy-1">
          <mxGeometry y="40" width="60" height="40" as="geometry" />
        </mxCell>
        <mxCell id="PGA9ps1pN8x-niHp9WUy-5" value="" style="shape=partialRectangle;html=1;whiteSpace=wrap;connectable=0;overflow=hidden;fillColor=none;top=0;left=0;bottom=0;right=0;" vertex="1" parent="PGA9ps1pN8x-niHp9WUy-4">
          <mxGeometry width="60" height="40" as="geometry" />
        </mxCell>
        <mxCell id="PGA9ps1pN8x-niHp9WUy-6" value="" style="shape=partialRectangle;html=1;whiteSpace=wrap;collapsible=0;dropTarget=0;pointerEvents=0;fillColor=none;top=0;left=0;bottom=0;right=0;points=[[0,0.5],[1,0.5]];portConstraint=eastwest;" vertex="1" parent="PGA9ps1pN8x-niHp9WUy-1">
          <mxGeometry y="80" width="60" height="40" as="geometry" />
        </mxCell>
        <mxCell id="PGA9ps1pN8x-niHp9WUy-7" value="Heap" style="shape=partialRectangle;html=1;whiteSpace=wrap;connectable=0;overflow=hidden;fillColor=#f8cecc;top=0;left=0;bottom=0;right=0;strokeColor=#b85450;" vertex="1" parent="PGA9ps1pN8x-niHp9WUy-6">
          <mxGeometry width="60" height="40" as="geometry" />
        </mxCell>
        <mxCell id="PGA9ps1pN8x-niHp9WUy-8" value="" style="shape=partialRectangle;html=1;whiteSpace=wrap;collapsible=0;dropTarget=0;pointerEvents=0;fillColor=none;top=0;left=0;bottom=0;right=0;points=[[0,0.5],[1,0.5]];portConstraint=eastwest;" vertex="1" parent="PGA9ps1pN8x-niHp9WUy-1">
          <mxGeometry y="120" width="60" height="40" as="geometry" />
        </mxCell>
        <mxCell id="PGA9ps1pN8x-niHp9WUy-9" value="Data" style="shape=partialRectangle;html=1;whiteSpace=wrap;connectable=0;overflow=hidden;fillColor=#fff2cc;top=0;left=0;bottom=0;right=0;strokeColor=#d6b656;" vertex="1" parent="PGA9ps1pN8x-niHp9WUy-8">
          <mxGeometry width="60" height="40" as="geometry" />
        </mxCell>
        <mxCell id="PGA9ps1pN8x-niHp9WUy-10" value="" style="shape=partialRectangle;html=1;whiteSpace=wrap;collapsible=0;dropTarget=0;pointerEvents=0;fillColor=none;top=0;left=0;bottom=0;right=0;points=[[0,0.5],[1,0.5]];portConstraint=eastwest;" vertex="1" parent="PGA9ps1pN8x-niHp9WUy-1">
          <mxGeometry y="160" width="60" height="40" as="geometry" />
        </mxCell>
        <mxCell id="PGA9ps1pN8x-niHp9WUy-11" value="Text" style="shape=partialRectangle;html=1;whiteSpace=wrap;connectable=0;overflow=hidden;fillColor=#d5e8d4;top=0;left=0;bottom=0;right=0;strokeColor=#82b366;" vertex="1" parent="PGA9ps1pN8x-niHp9WUy-10">
          <mxGeometry width="60" height="40" as="geometry" />
        </mxCell>
        <mxCell id="PGA9ps1pN8x-niHp9WUy-25" value="" style="shape=curlyBracket;whiteSpace=wrap;html=1;rounded=1;direction=west;" vertex="1" parent="1">
          <mxGeometry x="370" y="300" width="20" height="40" as="geometry" />
        </mxCell>
        <mxCell id="PGA9ps1pN8x-niHp9WUy-26" value="" style="shape=curlyBracket;whiteSpace=wrap;html=1;rounded=1;direction=west;" vertex="1" parent="1">
          <mxGeometry x="370" y="380" width="20" height="40" as="geometry" />
        </mxCell>
        <mxCell id="PGA9ps1pN8x-niHp9WUy-27" value="" style="shape=curlyBracket;whiteSpace=wrap;html=1;rounded=1;direction=west;" vertex="1" parent="1">
          <mxGeometry x="370" y="420" width="20" height="40" as="geometry" />
        </mxCell>
        <mxCell id="PGA9ps1pN8x-niHp9WUy-28" value="" style="shape=curlyBracket;whiteSpace=wrap;html=1;rounded=1;direction=west;" vertex="1" parent="1">
          <mxGeometry x="370" y="460" width="20" height="40" as="geometry" />
        </mxCell>
        <mxCell id="2" value="Stack segment" style="text;html=1;align=center;verticalAlign=middle;resizable=0;points=[];autosize=1;" vertex="1" parent="1">
          <mxGeometry x="390" y="310" width="90" height="20" as="geometry" />
        </mxCell>
        <mxCell id="PGA9ps1pN8x-niHp9WUy-29" value="Heap segment" style="text;html=1;align=center;verticalAlign=middle;resizable=0;points=[];autosize=1;" vertex="1" parent="1">
          <mxGeometry x="390" y="390" width="90" height="20" as="geometry" />
        </mxCell>
        <mxCell id="PGA9ps1pN8x-niHp9WUy-30" value="Data segment" style="text;html=1;align=center;verticalAlign=middle;resizable=0;points=[];autosize=1;" vertex="1" parent="1">
          <mxGeometry x="390" y="430" width="90" height="20" as="geometry" />
        </mxCell>
        <mxCell id="PGA9ps1pN8x-niHp9WUy-31" value="Text segment" style="text;html=1;align=center;verticalAlign=middle;resizable=0;points=[];autosize=1;" vertex="1" parent="1">
          <mxGeometry x="390" y="470" width="90" height="20" as="geometry" />
        </mxCell>
        <mxCell id="PGA9ps1pN8x-niHp9WUy-32" value="RAM" style="text;html=1;align=center;verticalAlign=middle;resizable=0;points=[];autosize=1;" vertex="1" parent="1">
          <mxGeometry x="540" y="270" width="40" height="20" as="geometry" />
        </mxCell>
      </root>
    </mxGraphModel>
  </diagram>
</mxfile>
